# xmcd
#
# Track frame offsets: 
#        150
#        4672
#        16694
#        30074
#        32661
#        48958
#        60315
#        63001
#        80649
#        91140
#        99865
#        116347
#        127409
#        145825
#        147084
#        166859
#        172204
#        191006
#        192772
#
# Disc length: 3041 seconds
#
# Revision: 0
# Processed by: cddbd v1.5PL3 Copyright (c) Steve Scherf et al.
# Submitted via: ExactAudioCopy v0.95a5
#
DISCID=e60bdf13
DTITLE=Pine Mountain Railroad - The Old Country Church
DYEAR=2002
DGENRE=Bluegrass
TTITLE0=Amazing Grace
TTITLE1=The Old Country Church
TTITLE2=Are You Washed In The Blood
TTITLE3=Welcome And Introduction Of Roger Helton
TTITLE4=He Is
TTITLE5='Tis So Sweet To Trust In Jesus
TTITLE6=Introduction Of Andrew Whaley
TTITLE7=The Alter Of Prayer
TTITLE8=Just Over In The Gloryland 
TTITLE9=Testimony Of Christian Walk
TTITLE10=The Longer I Serve Him
TTITLE11=Take A Moment And Live
TTITLE12=The Gospel Plow
TTITLE13=Introduction Of Trey Hensley
TTITLE14=Letter To Grandpa
TTITLE15=Testimonial
TTITLE16=There's Something About That Name
TTITLE17=Farewell And Closing Remarks
TTITLE18=Everybody Will Be Happy Over There
EXTD=
EXTT0=
EXTT1=
EXTT2=
EXTT3=
EXTT4=
EXTT5=
EXTT6=
EXTT7=
EXTT8=
EXTT9=
EXTT10=
EXTT11=
EXTT12=
EXTT13=
EXTT14=
EXTT15=
EXTT16=
EXTT17=
EXTT18=
PLAYORDER=
